<?xml version="1.0" encoding="UTF-8" standalone="no"?>
<!-- Created with Inkscape (http://www.inkscape.org/) -->

<svg
   width="210mm"
   height="210mm"
   viewBox="0 0 210 210"
   version="1.1"
   id="svg1"
   inkscape:version="1.3-beta (cedbd6c, 2023-05-28)"
   sodipodi:docname="merch-999.svg"
   xml:space="preserve"
   xmlns:inkscape="http://www.inkscape.org/namespaces/inkscape"
   xmlns:sodipodi="http://sodipodi.sourceforge.net/DTD/sodipodi-0.dtd"
   xmlns="http://www.w3.org/2000/svg"
   xmlns:svg="http://www.w3.org/2000/svg"><sodipodi:namedview
     id="namedview1"
     pagecolor="#ffffff"
     bordercolor="#999999"
     borderopacity="1"
     inkscape:showpageshadow="0"
     inkscape:pageopacity="0"
     inkscape:pagecheckerboard="true"
     inkscape:deskcolor="#d1d1d1"
     inkscape:document-units="mm"
     showgrid="true"
     inkscape:zoom="0.5"
     inkscape:cx="1409"
     inkscape:cy="478"
     inkscape:current-layer="layer2"><inkscape:grid
       id="grid1"
       units="mm"
       originx="0"
       originy="0"
       spacingx="0.99999998"
       spacingy="0.99999998"
       empcolor="#3f3fff"
       empopacity="0.25098039"
       color="#1b1bff"
       opacity="0.52941176"
       empspacing="5"
       dotted="false"
       gridanglex="30"
       gridanglez="30"
       visible="true" /></sodipodi:namedview><defs
     id="defs1"><inkscape:path-effect
       effect="skeletal"
       id="path-effect26"
       is_visible="true"
       lpeversion="1"
       pattern="M 0,0 H 1"
       copytype="single_stretched"
       prop_scale="1"
       scale_y_rel="false"
       spacing="10"
       normal_offset="0"
       tang_offset="0"
       prop_units="false"
       vertical_pattern="false"
       hide_knot="false"
       fuse_tolerance="0" /><inkscape:path-effect
       effect="lattice2"
       gridpoint0="19.270781,71.999946"
       gridpoint1="189.67126,71.999946"
       gridpoint2="19.270781,138.00005"
       gridpoint3="189.67126,138.00005"
       gridpoint4="61.870901,71.999946"
       gridpoint5="147.07114,71.999946"
       gridpoint6="61.870901,138.00005"
       gridpoint7="147.07114,138.00005"
       gridpoint8x9="104.47102,71.999946"
       gridpoint10x11="104.47102,138.00005"
       gridpoint12="19.270781,88.499972"
       gridpoint13="189.67126,88.499972"
       gridpoint14="19.270781,121.50002"
       gridpoint15="189.67126,121.50002"
       gridpoint16="61.870901,88.499972"
       gridpoint17="147.07114,88.499972"
       gridpoint18="61.870901,121.50002"
       gridpoint19="147.07114,121.50002"
       gridpoint20x21="104.47102,88.499972"
       gridpoint22x23="104.47102,121.50002"
       gridpoint24x26="19.270781,105"
       gridpoint25x27="189.67126,105"
       gridpoint28x30="61.870901,105"
       gridpoint29x31="147.07114,105"
       gridpoint32x33x34x35="104.47102,105"
       id="path-effect25"
       is_visible="true"
       lpeversion="1"
       horizontal_mirror="false"
       vertical_mirror="false"
       perimetral="false"
       live_update="true" /><inkscape:path-effect
       effect="knot"
       id="path-effect24"
       is_visible="true"
       lpeversion="1"
       switcher_size="15"
       interruption_width="3"
       prop_to_stroke_width="true"
       add_stroke_width="inkscape_1.0_and_up"
       both="false"
       inverse_width="false"
       add_other_stroke_width="inkscape_1.0_and_up"
       crossing_points_vector="" /><inkscape:path-effect
       effect="bend_path"
       id="path-effect23"
       is_visible="true"
       lpeversion="1"
       bendpath="M 25.000001,95.000002 C 98.234608,58.192181 90.000002,140 189.67126,105"
       prop_scale="1"
       scale_y_rel="false"
       vertical="false"
       hide_knot="false"
       bendpath-nodetypes="cc" /><inkscape:path-effect
       effect="envelope"
       id="path-effect22"
       is_visible="true"
       lpeversion="1"
       yy="true"
       xx="true"
       bendpath1="M 19.270781,71.999946 H 189.67126"
       bendpath2="M 189.67126,71.999946 C 200,85.000002 200,120 189.67126,138.00005"
       bendpath3="M 19.270781,138.00005 H 189.67126"
       bendpath4="M 19.270781,71.999946 C 10,85.000002 10.7886,125.68259 19.270781,138.00005"
       bendpath2-nodetypes="cc"
       bendpath4-nodetypes="cc" /><rect
       x="75.590553"
       y="56.692915"
       width="566.92915"
       height="566.92915"
       id="rect1" /><rect
       x="75.590553"
       y="56.692915"
       width="566.92915"
       height="566.92915"
       id="rect2" /></defs><g
     inkscape:groupmode="layer"
     id="layer2"
     inkscape:label="BG"><circle
       style="display:inline;opacity:1;fill:#000000;fill-opacity:1;stroke:none;stroke-width:0.529167;stroke-linecap:round;stroke-linejoin:bevel;stroke-miterlimit:10;stroke-opacity:1"
       id="path22"
       cx="105"
       cy="105"
       r="105"
       inkscape:label="OuterCircle" /><ellipse
       style="opacity:1;fill:#ffffff;fill-opacity:1;stroke:none;stroke-width:0.529167;stroke-linecap:round;stroke-linejoin:bevel;stroke-miterlimit:10;stroke-opacity:1"
       id="circle22"
       cx="105"
       cy="105.00001"
       rx="95"
       ry="95.000008"
       inkscape:label="InnerCircle" /></g><g
     inkscape:label="FG"
     inkscape:groupmode="layer"
     id="layer1"><path
       id="path29"
       style="display:inline;opacity:1;fill:#000000;fill-opacity:1;stroke:none;stroke-width:0.529167;stroke-linecap:round;stroke-linejoin:bevel;stroke-miterlimit:10;stroke-opacity:1"
       d="M 104.99979,15.000118 A 90,90 0 0 0 23.491073,67.000045 H 186.57673 A 90,90 0 0 0 104.99979,15.000118 Z M 23.491073,143.00006 a 90,90 0 0 0 81.576937,51.99992 90,90 0 0 0 81.50872,-51.99992 z"
       inkscape:label="Circle 3/0/3" /><path
       id="text1"
       style="font-size:192px;line-height:1.25;font-family:Pistara;-inkscape-font-specification:'Pistara, Normal';letter-spacing:0px;word-spacing:0px;white-space:pre;display:inline;fill:#000000;fill-opacity:1;stroke:none;stroke-width:0.264583;stroke-opacity:1"
       d="m 21.268296,71.999946 c -8.369054,22.005865 -8.346427,44.005834 -2e-6,66.000104 h 2.371905 V 79.000036 L 34.126194,90.99982 H 34.99999 L 45.486437,79.000036 v 59.000014 h 4.368977 V 71.999946 H 45.486437 L 34.99999,83.999731 H 34.126194 L 23.640199,71.999946 Z m 32.956547,0 v 66.000104 h 30.584643 v -5.00021 H 58.593819 V 96.000032 H 80.440057 V 90.99982 H 58.593819 V 76.999641 h 26.215667 v -4.999695 z m 34.954071,0 v 66.000104 h 4.368977 v -19.00039 h 4.36943 c 1.770537,0 2.195459,0.0232 3.926879,2.02985 l 14.82969,16.97054 h 3.08966 v -3.5357 c -0.56121,-0.616 -12.93499,-14.82853 -13.49618,-15.44453 0.15719,0 0.31912,-0.007 0.48454,-0.0202 h -0.96998 c 7.72179,4e-5 13.98156,-10.52117 13.98162,-23.499816 -5e-5,-12.978664 -6.25982,-23.499897 -13.98162,-23.499858 z m 54.615586,0 C 132.93572,72.000018 124.13296,86.774633 124.13298,105 c -2e-5,18.22537 8.80274,32.99998 19.66152,33.00005 3.8887,-5.2e-4 7.68997,-1.93645 10.92313,-5.56297 v -7.8543 c -2.87515,5.37987 -6.8122,8.41365 -10.92313,8.41706 -8.44577,1.8e-4 -15.29248,-12.5358 -15.29253,-27.99984 -1.1e-4,-15.46424 6.84665,-28.000538 15.29253,-28.000359 4.10994,1.41e-4 8.04685,3.029346 10.92313,8.404655 v -7.841382 c -3.23316,-3.626519 -7.03443,-5.562445 -10.92313,-5.562968 z m 15.29211,0 v 66.000104 h 4.36897 V 96.000032 h 21.84624 v 42.000018 h 3.42986 c 8.30661,-21.94305 8.40879,-43.94226 0,-66.000104 h -3.42986 V 90.99982 H 163.45558 V 71.999946 Z m -65.538719,4.999695 h 12.234039 c 5.30873,1.44e-4 9.61225,8.282933 9.6122,18.500163 5e-5,10.217236 -4.30347,18.500026 -9.6122,18.500166 H 93.547891 Z"
       sodipodi:nodetypes="ccccccccccccccccccccccccccccccccscccccccccccscccccccccccccccccccccccccccc"
       inkscape:label="Merch" /><path
       id="path30"
       style="opacity:1;fill:#ffffff;fill-opacity:1;stroke:none;stroke-width:0.529167;stroke-linecap:round;stroke-linejoin:bevel;stroke-miterlimit:10;stroke-opacity:1"
       inkscape:transform-center-x="0.023622925"
       inkscape:transform-center-y="12.647531"
       d="m 73.813066,147.9889 a 12.5,12.5 0 0 0 -10.768335,5.66012 12.5,12.5 0 0 0 3.628202,17.30127 12.5,12.5 0 0 0 10.347689,1.53065 l -10.825696,16.57109 2.676839,1.38751 15.102437,-23.11745 A 12.5,12.5 0 0 0 80.346,150.02082 12.5,12.5 0 0 0 73.813066,147.9889 Z m 31.999594,0 a 12.5,12.5 0 0 0 -10.768332,5.66012 12.5,12.5 0 0 0 3.628202,17.30127 12.5,12.5 0 0 0 10.34769,1.53065 l -15.160316,23.20582 h 3.583244 L 115.9738,167.32209 a 12.5,12.5 0 0 0 -3.6282,-17.30127 12.5,12.5 0 0 0 -6.53294,-2.03192 z m 31.99185,0 a 12.5,12.5 0 0 0 -10.76834,5.66012 12.5,12.5 0 0 0 3.62821,17.30127 12.5,12.5 0 0 0 10.34768,1.53065 l -15.16031,23.20582 h 3.58324 l 18.53066,-28.36467 a 12.5,12.5 0 0 0 -3.62821,-17.30127 12.5,12.5 0 0 0 -6.53293,-2.03192 z m -64.766591,3.0086 a 9.500001,9.5 33.156123 0 1 5.667354,1.53479 9.500001,9.5 33.156123 0 1 2.757455,13.14855 9.500001,9.5 33.156123 0 1 -13.149068,2.75797 9.500001,9.5 33.156123 0 1 -2.757455,-13.14906 9.500001,9.5 33.156123 0 1 7.481714,-4.29225 z m 31.999601,0 a 9.500001,9.5 33.156123 0 1 5.66735,1.53479 9.500001,9.5 33.156123 0 1 2.75746,13.14855 9.500001,9.5 33.156123 0 1 -13.14907,2.75797 9.500001,9.5 33.156123 0 1 -2.757458,-13.14906 9.500001,9.5 33.156123 0 1 7.481718,-4.29225 z m 31.99184,0 a 9.500001,9.5 33.156123 0 1 5.66736,1.53479 9.500001,9.5 33.156123 0 1 2.75745,13.14855 9.500001,9.5 33.156123 0 1 -13.14907,2.75797 9.500001,9.5 33.156123 0 1 -2.75745,-13.14906 9.500001,9.5 33.156123 0 1 7.48171,-4.29225 z m -47.529397,23.00222 c -0.828556,-9e-5 -1.50026,0.6716 -1.500166,1.50016 1.93e-4,0.82836 0.671813,1.49974 1.500166,1.49965 0.828356,9e-5 1.499974,-0.67129 1.500167,-1.49965 9.4e-5,-0.82856 -0.671608,-1.50025 -1.500167,-1.50016 z m 32.000117,0 c -0.82856,-9e-5 -1.50026,0.6716 -1.50017,1.50016 1.9e-4,0.82836 0.67181,1.49974 1.50017,1.49965 0.82835,9e-5 1.49997,-0.6713 1.50016,-1.49965 9e-5,-0.82856 -0.6716,-1.50025 -1.50016,-1.50016 z"
       inkscape:label="9.9.9" /><path
       id="path40"
       style="opacity:1;fill:#ffffff;fill-opacity:1;stroke:none;stroke-width:0.264583px;stroke-linecap:butt;stroke-linejoin:miter;stroke-opacity:1"
       d="m 98.986206,20.463457 a 2.5,1.5 34.92651 0 0 -1.062984,0.456303 l -9.832475,14.080278 h -7.09104 c -1.999998,0 -1.999878,-1.14e-4 -1.999878,1.999878 v 1.000455 c 0,1.999992 -0.01062,2.009888 1.999878,1.999878 h 0.999939 l 2.999817,17.999935 c 0.35921,1.947354 0.977856,3.001817 3.000334,2.999817 h 16.999993 17 c 2.02248,0.002 2.64112,-1.052463 3.00033,-2.999817 l 2.99982,-17.999935 h 0.99994 c 2.0105,0.01001 1.99988,1.14e-4 1.99988,-1.999878 v -1.000455 c 0,-1.999992 1.2e-4,-1.999878 -1.99988,-1.999878 h -7.09104 L 112.07636,20.91976 a 1.5,2.5 55.07349 0 0 -1.06298,-0.456303 1.5,2.5 55.07349 0 0 -1.84588,0.657325 1.5,2.5 55.07349 0 0 -1.19063,2.661336 l 7.83312,11.21792 H 104.99979 94.1896 l 7.83311,-11.21792 a 2.5,1.5 34.92651 0 0 -1.19062,-2.661336 2.5,1.5 34.92651 0 0 -1.845884,-0.657325 z m -3.986837,20.536731 a 1.5000912,2 0 0 1 1.500167,1.999878 v 9.999907 a 1.5000912,2 0 0 1 -1.500167,2.000394 1.5000912,2 0 0 1 -1.49965,-2.000394 v -9.999907 a 1.5000912,2 0 0 1 1.49965,-1.999878 z m 10.000421,0 a 1.5000912,2 0 0 1 1.50017,1.999878 v 9.999907 a 1.5000912,2 0 0 1 -1.50017,2.000394 1.5000912,2 0 0 1 -1.50016,-2.000394 v -9.999907 a 1.5000912,2 0 0 1 1.50016,-1.999878 z m 10.00043,0 a 1.5000912,2 0 0 1 1.49965,1.999878 v 9.999907 a 1.5000912,2 0 0 1 -1.49965,2.000394 1.5000912,2 0 0 1 -1.50017,-2.000394 v -9.999907 a 1.5000912,2 0 0 1 1.50017,-1.999878 z"
       inkscape:label="Basket" /></g></svg>
